<svg width="62" height="19" viewBox="0 0 62 19" fill="none" xmlns="http://www.w3.org/2000/svg">
<path d="M12.1292 17.9674H0V0.352302H3.72433V14.696H12.1292V17.9674Z" fill="#0DBC91"/>
<path d="M10.7981 9.15985C10.7981 7.71709 10.9826 6.42531 11.3517 5.28453C11.7208 4.14374 12.2492 3.18749 12.9371 2.41578C13.6417 1.6273 14.4973 1.03174 15.5038 0.629111C16.5104 0.209704 17.6512 0 18.9262 0C20.2851 0 21.4678 0.22648 22.4744 0.679439C23.4977 1.11562 24.3449 1.73635 25.016 2.54161C25.7038 3.34687 26.2155 4.3115 26.551 5.43551C26.9033 6.55952 27.0795 7.80097 27.0795 9.15985C27.0795 10.6026 26.8865 11.8944 26.5007 13.0352C26.1316 14.176 25.5948 15.1406 24.8902 15.9291C24.1856 16.7008 23.33 17.2963 22.3234 17.7157C21.3168 18.1184 20.1844 18.3197 18.9262 18.3197C17.5673 18.3197 16.3762 18.1016 15.3528 17.6654C14.3463 17.2125 13.4991 16.5833 12.8112 15.7781C12.1402 14.9728 11.6369 14.0082 11.3014 12.8842C10.9659 11.7602 10.7981 10.5187 10.7981 9.15985ZM14.7489 9.15985C14.7489 10.0322 14.8328 10.8291 15.0005 11.5505C15.1683 12.2718 15.42 12.8926 15.7555 13.4126C16.091 13.9327 16.5188 14.3353 17.0389 14.6205C17.5757 14.9057 18.2048 15.0483 18.9262 15.0483C20.2515 15.0483 21.2833 14.5954 22.0214 13.6894C22.7596 12.7835 23.1287 11.2737 23.1287 9.15985C23.1287 8.32103 23.0532 7.54094 22.9022 6.81956C22.7512 6.09818 22.4995 5.47745 22.1472 4.95739C21.8117 4.42055 21.3755 4.00953 20.8387 3.72433C20.3186 3.42236 19.6811 3.27137 18.9262 3.27137C17.6176 3.27137 16.5943 3.74111 15.8561 4.68058C15.118 5.62005 14.7489 7.11314 14.7489 9.15985Z" fill="#0DBC91"/>
<path d="M36.4045 8.70689H43.6015V16.6085C43.2156 16.9105 42.7878 17.1705 42.3181 17.3886C41.8651 17.5899 41.3786 17.7661 40.8586 17.9171C40.3553 18.0513 39.8352 18.1519 39.2984 18.219C38.7615 18.2861 38.2331 18.3197 37.713 18.3197C36.5051 18.3197 35.3727 18.1435 34.3158 17.7912C33.2757 17.4389 32.3614 16.8937 31.5729 16.1556C30.8012 15.4006 30.1888 14.4444 29.7359 13.2868C29.2997 12.1292 29.0816 10.7536 29.0816 9.15985C29.0816 7.499 29.35 6.08979 29.8869 4.93223C30.4237 3.75789 31.1199 2.81003 31.9755 2.08865C32.8479 1.35049 33.8125 0.822038 34.8694 0.503289C35.9431 0.167763 37.0084 0 38.0653 0C39.1558 0 40.112 0.0838813 40.934 0.251644C41.7729 0.40263 42.4271 0.553617 42.8969 0.704603L42.1168 3.79983C41.6638 3.64884 41.1521 3.52302 40.5817 3.42236C40.0114 3.3217 39.2984 3.27137 38.4428 3.27137C37.6543 3.27137 36.9329 3.38042 36.2786 3.59851C35.6244 3.79983 35.054 4.13535 34.5675 4.60509C34.0809 5.07482 33.7035 5.68716 33.4351 6.44209C33.1666 7.19702 33.0324 8.11133 33.0324 9.18501C33.0324 10.2251 33.1666 11.1143 33.4351 11.8524C33.7035 12.5906 34.0642 13.2029 34.5171 13.6894C34.9869 14.1592 35.5237 14.5031 36.1276 14.7212C36.7316 14.9393 37.3691 15.0483 38.0401 15.0483C38.4931 15.0483 38.9461 14.998 39.399 14.8973C39.8688 14.7967 40.263 14.6373 40.5817 14.4192V11.3743L36.4045 10.9717V8.70689Z" fill="#0DBC91"/>
<path d="M45.7186 9.15985C45.7186 7.71709 45.9032 6.42531 46.2722 5.28453C46.6413 4.14374 47.1698 3.18749 47.8576 2.41578C48.5622 1.6273 49.4178 1.03174 50.4244 0.629111C51.4309 0.209704 52.5717 0 53.8467 0C55.2056 0 56.3883 0.22648 57.3949 0.679439C58.4183 1.11562 59.2655 1.73635 59.9365 2.54161C60.6243 3.34687 61.136 4.3115 61.4715 5.43551C61.8238 6.55952 62 7.80097 62 9.15985C62 10.6026 61.8071 11.8944 61.4212 13.0352C61.0521 14.176 60.5153 15.1406 59.8107 15.9291C59.1061 16.7008 58.2505 17.2963 57.2439 17.7157C56.2374 18.1184 55.1049 18.3197 53.8467 18.3197C52.4879 18.3197 51.2967 18.1016 50.2734 17.6654C49.2668 17.2125 48.4196 16.5833 47.7318 15.7781C47.0607 14.9728 46.5574 14.0082 46.2219 12.8842C45.8864 11.7602 45.7186 10.5187 45.7186 9.15985ZM49.6694 9.15985C49.6694 10.0322 49.7533 10.8291 49.9211 11.5505C50.0888 12.2718 50.3405 12.8926 50.676 13.4126C51.0115 13.9327 51.4393 14.3353 51.9594 14.6205C52.4962 14.9057 53.1254 15.0483 53.8467 15.0483C55.1721 15.0483 56.2038 14.5954 56.942 13.6894C57.6801 12.7835 58.0492 11.2737 58.0492 9.15985C58.0492 8.32103 57.9737 7.54094 57.8227 6.81956C57.6717 6.09818 57.4201 5.47745 57.0678 4.95739C56.7323 4.42055 56.2961 4.00953 55.7592 3.72433C55.2392 3.42236 54.6017 3.27137 53.8467 3.27137C52.5382 3.27137 51.5148 3.74111 50.7767 4.68058C50.0385 5.62005 49.6694 7.11314 49.6694 9.15985Z" fill="#0DBC91"/>
</svg>
